<svg id="Layer_1" enable-background="new 0 0 256 256" height="512" viewBox="0 0 256 256" width="512" xmlns="http://www.w3.org/2000/svg"><path d="m191.243 109.575c-8.687 0-16.829 2.309-23.869 6.329l-10.83 8.427c-8.364 8.671-13.517 20.46-13.517 33.459 0 26.629 21.587 48.215 48.215 48.215 26.629 0 48.215-21.587 48.215-48.215.001-26.628-21.585-48.215-48.214-48.215z" fill="#ef6d7a"/><path d="m191.243 108.075c-8.625 0-17.136 2.257-24.613 6.526-.719.411-.97 1.327-.559 2.046.413.721 1.328.969 2.047.559 7.024-4.012 15.021-6.132 23.125-6.132 25.759 0 46.715 20.957 46.715 46.715 0 25.759-20.956 46.715-46.715 46.715s-46.716-20.957-46.716-46.715c0-12.148 4.651-23.661 13.098-32.417.574-.597.558-1.546-.039-2.121-.596-.574-1.544-.558-2.121.038-8.987 9.319-13.938 21.572-13.938 34.5 0 27.413 22.303 49.715 49.716 49.715s49.715-22.302 49.715-49.715c0-27.412-22.302-49.714-49.715-49.714z" fill="#3a312a"/><path d="m221.298 143.13h-17.546c-1.698 0-3.074-1.376-3.074-3.074v-10.014c0-3.429-2.78-6.209-6.205-6.209-1.715 0-3.266.694-4.388 1.817-1.123 1.127-1.817 2.678-1.817 4.393v7.748c0 3.192-2.033 6.034-5.058 7.062l-6.026 2.054c.025.184.037.371.037.563v28.078c0 .086-.004.168-.004.249l1.302.331c6.311 1.604 12.794 2.429 19.305 2.47.053 0 .102.004.155.004h15.141c2.433 0 4.405-1.972 4.405-4.405v-.057c0-2.433-1.972-4.405-4.405-4.405h3.013c2.433 0 4.405-1.972 4.405-4.405v-.057c0-2.433-1.972-4.405-4.405-4.405h3.013c2.433 0 4.405-1.972 4.405-4.405v-.057c0-2.433-1.972-4.405-4.405-4.405h-5.013l.004-.004h7.16c2.433 0 4.405-1.972 4.405-4.405v-.057c.001-2.433-1.971-4.405-4.404-4.405z" fill="#fae6ca"/><path d="m221.298 141.63h-17.545c-.868 0-1.574-.706-1.574-1.574v-10.014c0-4.251-3.456-7.71-7.705-7.71-2.06 0-3.995.801-5.451 2.258-1.453 1.458-2.254 3.394-2.254 5.452v7.748c0 2.553-1.624 4.82-4.042 5.643l-6.025 2.053c-.678.231-1.098.908-1.004 1.617.017.12.024.242.024.366l-.002 28.17-.002.157c0 .686.466 1.285 1.131 1.454l1.302.331c6.402 1.628 13.019 2.474 19.694 2.517.02 0 .116.003.136.003h15.141c3.256 0 5.905-2.649 5.905-5.962 0-1.19-.354-2.3-.963-3.229 2.312-.803 3.976-3.012 3.976-5.638 0-1.191-.354-2.3-.963-3.229 2.312-.803 3.976-3.012 3.976-5.638 0-1.313-.431-2.528-1.159-3.51 1.959-.962 3.311-2.978 3.311-5.304v-.057c-.002-3.255-2.651-5.904-5.907-5.904zm2.905 5.962c0 1.602-1.304 2.905-2.905 2.905h-7.16c-.397 0-.783.162-1.064.443-.429.429-.558 1.074-.325 1.635.232.561.779.926 1.386.926h5.013c1.602 0 2.905 1.303 2.905 2.962 0 1.602-1.304 2.905-2.905 2.905h-3.013c-.828 0-1.5.671-1.5 1.5s.672 1.5 1.5 1.5c1.602 0 2.905 1.303 2.905 2.962 0 1.602-1.304 2.905-2.905 2.905h-3.013c-.828 0-1.5.671-1.5 1.5s.672 1.5 1.5 1.5c1.602 0 2.905 1.303 2.905 2.961 0 1.602-1.304 2.905-2.905 2.905l-15.162-.001c-.017-.001-.109-.003-.125-.003-6.404-.04-12.778-.855-18.946-2.423l-.167-.042v-26.664l4.972-1.694c3.634-1.235 6.075-4.645 6.075-8.482v-7.748c0-1.258.489-2.442 1.377-3.332.888-.888 2.07-1.378 3.328-1.378 2.595 0 4.705 2.113 4.705 4.71v10.014c0 2.522 2.052 4.574 4.574 4.574h17.545c1.602 0 2.905 1.303 2.905 2.905z" fill="#3a312a"/><path d="m172.589 142.835h-10.637v37.345h10.637c2.559 0 4.634-2.075 4.634-4.634v-28.077c.001-2.56-2.074-4.634-4.634-4.634z" fill="#87796f"/><path d="m172.59 141.334h-10.638c-.828 0-1.5.671-1.5 1.5v37.346c0 .829.672 1.5 1.5 1.5h10.638c3.382 0 6.134-2.752 6.134-6.134v-28.077c0-3.383-2.752-6.135-6.134-6.135zm3.134 34.212c0 1.728-1.406 3.134-3.134 3.134h-9.138v-34.346h9.138c1.728 0 3.134 1.406 3.134 3.134z" fill="#3a312a"/><path d="m169.588 168.939c-1.931 0-3.496 1.565-3.496 3.496s1.565 3.495 3.496 3.495 3.496-1.565 3.496-3.495c0-1.931-1.565-3.496-3.496-3.496z" fill="#d6df58"/><path d="m169.588 167.44c-2.754 0-4.995 2.241-4.995 4.995s2.241 4.996 4.995 4.996c2.755 0 4.996-2.241 4.996-4.996s-2.241-4.995-4.996-4.995zm0 6.99c-1.101 0-1.995-.895-1.995-1.996 0-1.1.895-1.995 1.995-1.995s1.996.895 1.996 1.995c0 1.101-.896 1.996-1.996 1.996z" fill="#3a312a"/><path d="m226.23 26.102c-.974 11.564-13.031 13.389-13.031 13.389 10.352.487 12.932 14.059 12.932 14.059.221-9.677 13.328-14.202 13.328-14.202-9.819-.587-13.229-13.246-13.229-13.246z" fill="#d7e057"/><path d="m239.548 37.851c-8.609-.515-11.839-12.025-11.87-12.141-.191-.702-.849-1.169-1.584-1.101-.725.066-1.298.642-1.359 1.367-.86 10.215-11.319 11.963-11.761 12.033-.763.115-1.313.79-1.273 1.56s.657 1.384 1.428 1.421c9.033.425 11.505 12.718 11.528 12.842.138.711.76 1.217 1.473 1.217.042 0 .084-.002.126-.005.765-.064 1.357-.693 1.375-1.459.194-8.509 12.198-12.777 12.319-12.819.675-.235 1.092-.914.994-1.623-.098-.708-.682-1.249-1.396-1.292zm-13.573 10.347c-1.357-3.13-3.71-6.908-7.591-8.878 2.933-1.405 6.412-3.914 8.206-8.274 1.552 3.071 4.202 6.881 8.339 8.724-3.009 1.64-6.927 4.406-8.954 8.428z" fill="#3a312a"/><path d="m204.52 43.083c-.689 8.179-9.217 9.47-9.217 9.47 7.322.344 9.147 9.944 9.147 9.944.156-6.844 9.427-10.045 9.427-10.045-6.945-.415-9.357-9.369-9.357-9.369z" fill="#d7e057"/><path d="m213.966 50.955c-5.77-.345-7.977-8.186-7.999-8.265-.189-.702-.861-1.164-1.581-1.102-.726.065-1.3.642-1.361 1.368-.579 6.871-7.65 8.067-7.946 8.114-.763.115-1.313.79-1.273 1.561.04.77.657 1.384 1.428 1.421 6.038.284 7.728 8.644 7.743 8.726.136.712.759 1.22 1.473 1.22.041 0 .083-.001.125-.005.765-.063 1.358-.694 1.376-1.461.13-5.708 8.335-8.633 8.416-8.661.677-.234 1.094-.913.997-1.622-.099-.71-.684-1.251-1.398-1.294zm-9.59 6.795c-.924-1.886-2.341-3.948-4.449-5.281 1.856-1.041 3.699-2.63 4.873-4.917 1.058 1.874 2.656 3.955 4.944 5.225-1.85 1.101-3.991 2.741-5.368 4.973z" fill="#3a312a"/><path d="m204.52 16.425c-.689 8.179-9.217 9.471-9.217 9.471 7.322.344 9.147 9.944 9.147 9.944.156-6.844 9.427-10.045 9.427-10.045-6.945-.416-9.357-9.37-9.357-9.37z" fill="#d7e057"/><path d="m213.966 24.297c-5.77-.345-7.977-8.186-7.999-8.265-.189-.702-.861-1.163-1.581-1.102-.726.065-1.3.642-1.361 1.368-.579 6.871-7.65 8.067-7.946 8.114-.763.115-1.313.79-1.273 1.56.04.771.657 1.385 1.428 1.421 6.038.284 7.728 8.644 7.743 8.726.136.712.759 1.22 1.473 1.22.041 0 .083-.001.125-.005.765-.063 1.358-.694 1.376-1.461.13-5.709 8.336-8.634 8.416-8.662.677-.234 1.094-.913.997-1.622-.099-.708-.684-1.249-1.398-1.292zm-9.59 6.796c-.924-1.886-2.341-3.948-4.449-5.281 1.856-1.042 3.699-2.631 4.873-4.918 1.058 1.874 2.656 3.956 4.944 5.225-1.85 1.101-3.991 2.741-5.368 4.974z" fill="#3a312a"/><path d="m148.47 76.34c0-10.04-7.53-18.3-17.24-19.5.39-1.55.63-3.17.63-4.84 0-10.86-8.81-19.66-19.66-19.66-3.71 0-7.16 1.04-10.11 2.82-.49-10.42-9.07-18.74-19.62-18.74-10.54 0-19.13 8.32-19.61 18.74-2.96-1.78-6.41-2.82-10.11-2.82-10.86 0-19.66 8.8-19.66 19.66 0 1.67.23 3.29.63 4.84-9.72 1.2-17.25 9.46-17.25 19.5 0 4.83 1.75 9.25 4.64 12.67-2.89 3.44-4.64 7.87-4.64 12.71 0 10.02 7.46 18.29 17.13 19.58-1.74-5.94-2.72-11.73-2.72-17 0-28.48 23.1-51.56 51.59-51.56 28.5 0 51.59 23.08 51.59 51.56 0 5.27-.94 11.05-2.62 16.99 9.62-1.33 17.03-9.58 17.03-19.57 0-4.84-1.75-9.27-4.64-12.71 2.89-3.42 4.64-7.84 4.64-12.67z" fill="#87796f"/><path d="m149.97 76.34c0-10.109-7.176-18.747-16.941-20.726.221-1.232.332-2.442.332-3.614 0-11.668-9.492-21.16-21.16-21.16-3.06 0-6.076.67-8.844 1.952-1.588-10.19-10.356-17.872-20.887-17.872-10.536 0-19.301 7.683-20.878 17.873-2.773-1.282-5.79-1.953-8.842-1.953-11.668 0-21.16 9.492-21.16 21.16 0 1.192.11 2.402.328 3.615-9.77 1.979-16.948 10.616-16.948 20.725 0 4.572 1.492 9.025 4.226 12.672-2.732 3.665-4.226 8.132-4.226 12.708 0 10.608 7.924 19.665 18.432 21.066.066.009.133.013.198.013.435 0 .852-.189 1.139-.523.33-.385.443-.912.301-1.398-1.765-6.026-2.659-11.604-2.659-16.579 0-27.603 22.47-50.06 50.09-50.06s50.09 22.457 50.09 50.06c0 4.99-.862 10.569-2.563 16.582-.138.487-.02 1.011.312 1.393.333.382.838.569 1.337.501 10.446-1.444 18.324-10.496 18.324-21.056 0-4.576-1.493-9.043-4.226-12.708 2.733-3.646 4.225-8.1 4.225-12.671zm-3 25.38c0 8.283-5.643 15.486-13.454 17.618 1.357-5.389 2.044-10.438 2.044-15.038 0-29.257-23.816-53.06-53.09-53.06-29.273 0-53.09 23.802-53.09 53.06 0 4.595.714 9.65 2.125 15.055-7.859-2.104-13.535-9.313-13.535-17.635 0-4.282 1.523-8.454 4.289-11.746.47-.559.469-1.376-.003-1.933-2.764-3.27-4.286-7.426-4.286-11.702 0-9.146 6.85-16.89 15.934-18.011.429-.053.814-.288 1.057-.645.242-.357.32-.801.212-1.219-.386-1.5-.582-3.002-.582-4.465 0-10.014 8.146-18.16 18.16-18.16 3.274 0 6.503.901 9.337 2.606.453.272 1.016.286 1.482.037s.767-.726.79-1.253c.447-9.706 8.402-17.309 18.111-17.309 9.705 0 17.665 7.604 18.122 17.311.024.528.325 1.004.792 1.253.466.249 1.028.234 1.481-.039 2.823-1.704 6.052-2.604 9.335-2.604 10.014 0 18.16 8.146 18.16 18.16 0 1.426-.196 2.931-.585 4.474-.104.417-.025.859.218 1.213.243.355.627.588 1.054.641 9.077 1.122 15.923 8.865 15.923 18.011 0 4.275-1.521 8.431-4.285 11.702-.472.558-.473 1.374-.003 1.933 2.764 3.292 4.287 7.463 4.287 11.745z" fill="#3a312a"/><path d="m118.436 183.224h-19.54v-12.693c-5.405 3.745-10.997 5.954-16.424 5.954-5.206 0-10.699-2.232-16.081-6.021h-.331v12.759h-19.552c-16.335 0-29.576 13.234-29.576 29.56v26.788h131.08v-26.788c0-16.325-13.241-29.559-29.576-29.559z" fill="#fce8cb"/><path d="m118.437 181.724h-18.041v-11.193c0-.558-.31-1.07-.804-1.329s-1.092-.223-1.551.096c-5.445 3.774-10.684 5.688-15.568 5.688-4.681 0-9.801-1.934-15.219-5.747-.253-.178-.554-.273-.863-.273h-.331c-.828 0-1.5.671-1.5 1.5v11.259h-18.052c-17.135 0-31.075 13.934-31.075 31.061v26.788c0 .829.672 1.5 1.5 1.5h44.912c.828 0 1.5-.671 1.5-1.5s-.672-1.5-1.5-1.5h-43.412v-25.288c0-15.473 12.595-28.061 28.075-28.061h19.552c.828 0 1.5-.671 1.5-1.5v-10.177c5.204 3.279 10.212 4.938 14.913 4.938 4.779 0 9.789-1.577 14.923-4.691v9.93c0 .829.672 1.5 1.5 1.5h19.541c15.48 0 28.075 12.588 28.075 28.061v25.288h-69.892c-.828 0-1.5.671-1.5 1.5s.672 1.5 1.5 1.5h71.392c.828 0 1.5-.671 1.5-1.5v-26.788c0-17.128-13.941-31.062-31.075-31.062z" fill="#3a312a"/><path d="m118.437 183.215h-4.675l.122.088-20.325 26.943-10.489-7.898-10.489 7.898-20.325-26.943.121-.088h-5.869c-16.335 0-29.576 13.234-29.576 29.561v26.799h131.08v-26.799c.001-16.327-13.24-29.561-29.575-29.561z" fill="#87796f"/><path d="m118.437 181.715h-4.675c-.649 0-1.225.418-1.426 1.035-.019.057-.034.115-.046.174l-19.027 25.223-9.291-6.997c-.535-.402-1.27-.402-1.805 0l-9.291 6.997-19.027-25.223c-.012-.059-.026-.117-.046-.174-.201-.618-.776-1.035-1.426-1.035h-5.869c-17.135 0-31.075 13.934-31.075 31.061v26.799c0 .829.672 1.5 1.5 1.5h44.912c.828 0 1.5-.671 1.5-1.5s-.672-1.5-1.5-1.5h-43.412v-25.299c0-15.473 12.595-28.061 28.075-28.061h4.934l19.942 26.435c.498.662 1.438.792 2.1.295l9.586-7.219 9.586 7.219c.662.498 1.601.366 2.1-.295l19.942-26.435h3.739c15.482 0 28.076 12.588 28.076 28.061v25.299h-69.893c-.828 0-1.5.671-1.5 1.5s.672 1.5 1.5 1.5h71.393c.828 0 1.5-.671 1.5-1.5v-26.799c0-17.127-13.941-31.061-31.076-31.061z" fill="#3a312a"/><ellipse clip-rule="evenodd" cx="31.687" cy="109.945" fill="#fce8cb" fill-rule="evenodd" rx="11.631" ry="11.637" transform="matrix(.003 -1 1 .003 -78.338 141.356)"/><path d="m31.686 96.814c-7.244 0-13.138 5.891-13.138 13.131 0 7.241 5.894 13.131 13.138 13.131s13.138-5.891 13.138-13.131-5.893-13.131-13.138-13.131zm0 23.263c-5.59 0-10.138-4.545-10.138-10.131s4.548-10.131 10.138-10.131 10.138 4.545 10.138 10.131-4.548 10.131-10.138 10.131z" fill="#3a312a"/><ellipse clip-rule="evenodd" cx="133.261" cy="109.945" fill="#fce8cb" fill-rule="evenodd" rx="11.638" ry="11.631" transform="matrix(1 -.001 .001 1 -.136 .165)"/><path d="m133.262 96.814c-7.244 0-13.138 5.891-13.138 13.131 0 7.241 5.894 13.131 13.138 13.131 7.243 0 13.137-5.891 13.137-13.131-.001-7.24-5.894-13.131-13.137-13.131zm0 23.263c-5.59 0-10.138-4.545-10.138-10.131s4.548-10.131 10.138-10.131 10.137 4.545 10.137 10.131c-.001 5.586-4.547 10.131-10.137 10.131z" fill="#3a312a"/><path d="m82.474 52.736c-28.492 0-51.59 23.086-51.59 51.563s28.538 72.188 51.59 72.188c24.149 0 51.59-43.711 51.59-72.188 0-28.478-23.098-51.563-51.59-51.563z" fill="#fce8cb"/><path d="m82.474 51.236c-29.273 0-53.09 23.804-53.09 53.063 0 13.838 6.674 32.087 17.417 47.627 11.282 16.319 24.618 26.062 35.673 26.062 11.639 0 24.793-9.502 36.09-26.07 10.486-15.377 17-33.624 17-47.618-.001-29.26-23.817-53.064-53.09-53.064zm33.611 98.991c-10.571 15.504-23.137 24.76-33.611 24.76-10.069 0-22.482-9.259-33.205-24.768-10.415-15.064-16.885-32.66-16.885-45.92 0-27.605 22.47-50.063 50.09-50.063s50.09 22.458 50.09 50.063c-.001 13.424-6.315 31.022-16.479 45.928z" fill="#3a312a"/><path d="m64.26 98.684c-2.781 0-5.035 2.254-5.035 5.033 0 2.78 2.254 5.033 5.035 5.033s5.035-2.253 5.035-5.033c0-2.779-2.254-5.033-5.035-5.033z" fill="#3a312a"/><path d="m100.688 98.684c-2.781 0-5.035 2.254-5.035 5.033 0 2.78 2.254 5.033 5.035 5.033s5.035-2.253 5.035-5.033c0-2.779-2.254-5.033-5.035-5.033z" fill="#3a312a"/><path d="m54.196 112.198c-4.791 0-8.674 2.902-8.674 6.481s3.884 6.481 8.674 6.481c4.791 0 8.674-2.902 8.674-6.481s-3.883-6.481-8.674-6.481z" fill="#f5978a"/><path d="m110.752 112.198c-4.791 0-8.674 2.902-8.674 6.481s3.884 6.481 8.674 6.481 8.674-2.902 8.674-6.481-3.884-6.481-8.674-6.481z" fill="#f5978a"/><path d="m61.094 175.932h13.186v33.749h-13.186z" fill="#d7e057" transform="matrix(.799 -.602 .602 .799 -102.382 79.526)"/><path d="m84.31 201.41-20.318-26.947c-.499-.662-1.438-.794-2.1-.295l-10.533 7.934c-.318.24-.527.596-.583.99s.048.794.288 1.112l20.319 26.947c.295.391.744.597 1.198.597.314 0 .631-.098.901-.302l10.532-7.933c.318-.24.527-.595.583-.99.056-.396-.047-.796-.287-1.113zm-11.435 6.736-18.513-24.551 8.137-6.129 18.512 24.552z" fill="#3a312a"/><path d="m81.578 186.213h33.749v13.186h-33.749z" fill="#d7e057" transform="matrix(.602 -.799 .799 .602 -114.768 155.336)"/><g fill="#3a312a"><path d="m115.363 183.091c-.056-.394-.265-.75-.583-.99l-10.532-7.934c-.661-.497-1.602-.366-2.1.295l-20.319 26.948c-.24.318-.344.718-.288 1.112s.265.75.583.99l10.532 7.933c.271.204.587.302.901.302.454 0 .904-.206 1.198-.597l20.319-26.947c.241-.318.345-.718.289-1.112zm-22.099 25.055-8.136-6.128 18.513-24.552 8.136 6.128z"/><path d="m41.485 216.902c-.828 0-1.5.671-1.5 1.5v21.173c0 .829.672 1.5 1.5 1.5s1.5-.671 1.5-1.5v-21.173c0-.828-.672-1.5-1.5-1.5z"/><path d="m124.653 216.902c-.828 0-1.5.671-1.5 1.5v21.173c0 .829.672 1.5 1.5 1.5s1.5-.671 1.5-1.5v-21.173c0-.828-.672-1.5-1.5-1.5z"/><path d="m97.254 135.851c-.779-.291-1.641.103-1.931.878-1.023 2.73-5.026 7.894-12.851 7.894-6.112 0-10.333-2.621-12.901-8.013-.357-.747-1.249-1.065-2-.709-.748.356-1.065 1.251-.709 1.999 3.074 6.452 8.326 9.723 15.61 9.723 8.225 0 13.883-5.102 15.659-9.842.292-.775-.102-1.639-.877-1.93z"/></g><path d="m191.248 111.08c-2.4 0-4.77.18-7.08.54 14.68 4.41 26.4 15.64 31.51 30.01h5.62c3.26 0 5.91 2.65 5.91 5.9v.06c0 2.33-1.36 4.34-3.31 5.31.72.98 1.15 2.19 1.15 3.51 0 2.62-1.66 4.83-3.97 5.63.61.93.96 2.04.96 3.23 0 2.63-1.66 4.84-3.97 5.64.6.93.96 2.04.96 3.23 0 3.31-2.65 5.96-5.91 5.96h-.13c-5.95 11.39-16.32 20.11-28.84 23.87 2.31.36 4.68.54 7.09.54 25.76 0 46.72-20.96 46.72-46.72s-20.96-46.71-46.71-46.71z" fill="#d34e5c"/></svg>