<svg height="512" viewBox="0 0 256 256" width="512" xmlns="http://www.w3.org/2000/svg"><path d="m70.813 165.5v39a45.662 45.662 0 0 0 .717 8.142 46.731 46.731 0 0 0 92.035 0 46.214 46.214 0 0 0 .717-8.142v-39z" fill="#ffb69f"/><path d="m132.067 222.884a14.531 14.531 0 0 1 -29.039 0z" fill="#fc5d3d"/><path d="m166.665 123.494-8.465-5.794a16.042 16.042 0 0 1 -15.755 13.052h-50.416a21.223 21.223 0 0 0 -21.216 21.218v13.53h93.469l5.847-5.924a23.628 23.628 0 0 0 -3.464-36.082z" fill="#7c7b7a"/><path d="m70.813 165.493v26.457l18.77-26.457z" fill="#afafaf"/><path d="m145.512 165.493 18.77 26.457v-26.457z" fill="#afafaf"/><path d="m70.813 204.5a45.662 45.662 0 0 0 .717 8.142h-5.439a13.449 13.449 0 1 1 0-26.9h4.722z" fill="#ffb69f"/><path d="m182.453 199.189a13.441 13.441 0 0 1 -13.453 13.449h-5.439a46.214 46.214 0 0 0 .717-8.142v-18.755h4.722a13.445 13.445 0 0 1 13.453 13.448z" fill="#ffb69f"/><path d="m126.824 97.958c27.207 0 49.262-17.487 49.262-39.055 0-19.807-18.577-36.056-42.457-38.67-3.619-8.208-2.109-4.781-6.8-15.435l-6.806 15.435c-23.882 2.614-42.462 18.867-42.462 38.667 0 21.571 22.056 39.058 49.263 39.058z" fill="#13bf6d"/><path d="m214.85 68.315c19.748 0 35.758 12.873 35.758 28.756 0 9.983-6.377 19.176-16.843 24.347a30.757 30.757 0 0 0 9.261 13 1.137 1.137 0 0 1 -1.04 1.975c-5.415-1.667-12.95-5.021-18.332-11.562-24.065 4.861-44.561-10.04-44.561-27.757 0-15.886 16.007-28.759 35.757-28.759z" fill="#f0c020"/><path d="m41.05 68.315c-19.75 0-35.757 12.873-35.757 28.756 0 9.983 6.376 19.176 16.842 24.347a30.757 30.757 0 0 1 -9.261 13 1.137 1.137 0 0 0 1.041 1.975c5.415-1.667 12.949-5.021 18.332-11.562 24.064 4.861 44.561-10.04 44.561-27.757 0-15.886-16.008-28.759-35.758-28.759z" fill="#72c1e8"/><g fill="#f0c020"><path d="m210.8 150.4c-4.478-1.48-9.1-2.773-11.7-13.959-2.391 10.3-6.223 12.149-11.7 13.959 8.932 2.951 10.28 7.839 11.7 13.958 2.449-10.545 6.5-12.235 11.7-13.958z"/><path d="m224.379 191.95c-4.478-1.479-9.1-2.773-11.7-13.958-2.391 10.3-6.223 12.149-11.7 13.958 8.932 2.952 10.28 7.839 11.7 13.959 2.448-10.549 6.497-12.239 11.7-13.959z"/><path d="m57.543 162.262c-4.479-1.479-9.1-2.773-11.7-13.958-2.392 10.3-6.223 12.149-11.7 13.958 8.933 2.952 10.28 7.839 11.7 13.959 2.447-10.549 6.496-12.239 11.7-13.959z"/></g><path d="m138.867 44.676h-4.3a2.187 2.187 0 0 1 -2.187-2.187v-7.089a5.228 5.228 0 0 0 -4.93-5.3 5.086 5.086 0 0 0 -5.242 5.084 9.488 9.488 0 0 1 -9.488 9.488h-4.842v35.621h30.988a9.769 9.769 0 0 0 9.769-9.769v-16.08a9.768 9.768 0 0 0 -9.768-9.768z" fill="#ffb69f"/><path d="m158.376 157.342a2.5 2.5 0 0 1 -.022-3.535c.571-.578 3.1-3.1 3.577-3.678a2.5 2.5 0 0 1 3.839 3.2c-.67.8-1.094 1.19-3.859 3.989a2.5 2.5 0 0 1 -3.535.024zm6.127-14.774a11.149 11.149 0 0 0 -4.336-8.445 2.5 2.5 0 1 1 3.053-3.959 16.135 16.135 0 0 1 6.279 12.22 2.5 2.5 0 0 1 -5 .184z" fill="#afafaf"/><path d="m235.447 108.885a2.5 2.5 0 0 1 -.373-3.516 15.542 15.542 0 0 0 1.86-2.891 2.5 2.5 0 1 1 4.486 2.209 20.579 20.579 0 0 1 -2.457 3.825 2.5 2.5 0 0 1 -3.516.373zm2.668-14.585c-1.133-6.2-6.945-11.59-14.809-13.72a2.5 2.5 0 1 1 1.306-4.826c9.864 2.672 16.922 9.435 18.421 17.648a2.5 2.5 0 1 1 -4.918.9z" fill="#f9e5af"/><path d="m48.276 115.888a2.5 2.5 0 0 1 1.617-3.144 25.42 25.42 0 0 0 3.533-1.434 2.5 2.5 0 1 1 2.232 4.472 30.042 30.042 0 0 1 -4.238 1.718 2.5 2.5 0 0 1 -3.144-1.612zm12.492-6.535a2.5 2.5 0 0 1 -.366-3.517 13.969 13.969 0 0 0 3.323-8.814c0-5.56-3.654-10.8-9.773-14.018a2.5 2.5 0 0 1 2.328-4.426c7.792 4.1 12.445 10.994 12.445 18.444a18.914 18.914 0 0 1 -4.44 11.965 2.5 2.5 0 0 1 -3.517.366z" fill="#c5e5ff"/><path d="m169 183.24h-2.222v-16.719l5.123-5.191a26.128 26.128 0 0 0 -3.832-39.9l-8.458-5.79a2.5 2.5 0 0 0 -3.868 1.6 13.548 13.548 0 0 1 -13.3 11.016h-50.414a23.744 23.744 0 0 0 -23.716 23.714v31.27h-2.222a15.949 15.949 0 0 0 0 31.9h3.409a49.215 49.215 0 0 0 96.1 0h3.4a15.949 15.949 0 1 0 0-31.9zm-7.218-15.24v16.111l-11.428-16.111zm-69.753-34.747h50.419a18.558 18.558 0 0 0 17.17-11.553l5.635 3.858a21.129 21.129 0 0 1 3.093 32.256l-5.11 5.176h-89.923v-11.02a18.738 18.738 0 0 1 18.716-18.717zm-18.716 34.747h11.429l-11.429 16.1zm-7.222 42.143a10.949 10.949 0 0 1 0-21.9h2.221v16.256c0 2.044.194 4.541.322 5.642zm51.459 38.557a44.111 44.111 0 0 1 -44.237-44.2v-11.75l17.559-24.75h53.351l17.559 24.752v11.748a44.233 44.233 0 0 1 -44.232 44.2zm51.45-38.562h-2.546a54.426 54.426 0 0 0 .324-5.642v-16.256h2.222a10.949 10.949 0 1 1 0 21.9z"/><path d="m132.07 220.385h-29.04a2.5 2.5 0 0 0 -2.5 2.59 17.033 17.033 0 0 0 34.04 0 2.514 2.514 0 0 0 -2.5-2.59zm-14.52 13.96h-.01a12 12 0 0 1 -11.63-8.96h23.27a12 12 0 0 1 -11.63 8.96z"/><path d="m95.8 186.9a2.5 2.5 0 0 0 -2.5 2.5v5.5a2.5 2.5 0 0 0 5 0v-5.5a2.5 2.5 0 0 0 -2.5-2.5z"/><path d="m139.3 186.9a2.5 2.5 0 0 0 -2.5 2.5v5.5a2.5 2.5 0 0 0 5 0v-5.5a2.5 2.5 0 0 0 -2.5-2.5z"/><path d="m117.548 210.762a2.5 2.5 0 0 0 2.5-2.5v-16.115a2.5 2.5 0 0 0 -5 0v16.115a2.5 2.5 0 0 0 2.5 2.5z"/><path d="m80.28 71.985a2.52 2.52 0 0 0 1.52-3.2 29.125 29.125 0 0 1 -1.741-9.879c0-18.346 17.453-33.694 40.231-36.19a2.507 2.507 0 0 0 2.019-1.471l4.511-10.25 4.52 10.25a2.5 2.5 0 0 0 2.02 1.471c22.66 2.483 40.209 17.733 40.23 36.19-.021 20.361-21.253 36.549-46.75 36.549-12.414 0-25.061-3.941-34.27-11.689a2.569 2.569 0 0 0 -3.52.309 2.5 2.5 0 0 0 .31 3.521c10.331 8.673 23.974 12.859 37.46 12.859 28.367 0 51.77-18.363 51.77-41.549 0-21.562-19.863-37.872-43.25-40.98l-6.23-14.142a2.5 2.5 0 0 0 -4.57 0c-4.468 10.138-2.978 6.747-6.24 14.141-24.137 3.21-43.241 20-43.241 40.98a34.06 34.06 0 0 0 2.031 11.57 2.545 2.545 0 0 0 3.19 1.51z"/><path d="m82.67 76.4a2.5 2.5 0 0 0 -.56 3.479s0 .011.01.011a2.5 2.5 0 1 0 4.04-2.95 2.561 2.561 0 0 0 -3.49-.54z"/><path d="m179.4 101.555a2.5 2.5 0 1 0 -2.71-2.271 2.5 2.5 0 0 0 2.71 2.271z"/><path d="m244.58 132.454a27.162 27.162 0 0 1 -7.61-9.91c10.1-5.76 16.13-15.279 16.14-25.47 0-17.419-17.243-31.259-38.26-31.259-16.347.019-31.77 8.56-36.77 22.58a2.488 2.488 0 0 0 1.53 3.189 2.547 2.547 0 0 0 3.19-1.529c3.92-11.33 17.09-19.24 32.009-19.24h.051c18.234 0 33.228 11.692 33.25 26.259 0 9.041-5.78 17.3-15.45 22.1a2.489 2.489 0 0 0 -1.23 3.149 35.73 35.73 0 0 0 5.36 9.38 32.176 32.176 0 0 1 -11.21-8.469 2.525 2.525 0 0 0 -2.42-.861c-17.117 3.487-32.756-3.725-38.87-15.019a2.506 2.506 0 0 0 -4.4 2.4c7.039 12.828 23.941 21.031 42.81 17.789 4.59 5.071 10.83 8.841 18.55 11.231a3.639 3.639 0 0 0 3.33-6.32z"/><path d="m213.669 105.875 13.614-13.613a2.5 2.5 0 0 0 -3.535-3.535l-11.848 11.846-4.4-4.4a2.5 2.5 0 1 0 -3.535 3.535l6.168 6.168a2.5 2.5 0 0 0 3.536-.001z"/><path d="m7.88 99.005a2.5 2.5 0 1 0 -2.49 2.73 2.495 2.495 0 0 0 2.49-2.73z"/><path d="m79.309 97.074c0-17.446-17.275-31.259-38.259-31.259-16.688.019-31.988 8.853-36.83 22.75a2.5 2.5 0 0 0 1.549 3.179 2.546 2.546 0 0 0 3.181-1.544c3.87-11.416 17.05-19.385 32.05-19.385h.059c18.23 0 33.23 11.69 33.25 26.259 0 16.287-19.354 29.827-41.569 25.3a2.532 2.532 0 0 0 -2.431.861 32.039 32.039 0 0 1 -11.2 8.469 35.573 35.573 0 0 0 5.35-9.38 2.513 2.513 0 0 0 -1.22-3.149 28.725 28.725 0 0 1 -12.71-11.67 2.566 2.566 0 0 0 -3.4-.99 2.508 2.508 0 0 0 -.98 3.4 33.147 33.147 0 0 0 12.78 12.63 27.068 27.068 0 0 1 -7.621 9.91 3.643 3.643 0 0 0 3.311 6.33l.03-.009c7.72-2.38 13.96-6.16 18.55-11.231 25.29 4.343 46.11-11.745 46.11-30.471z"/><path d="m34.786 105.875a2.5 2.5 0 0 0 3.535 0l13.613-13.613a2.5 2.5 0 0 0 -3.534-3.535l-11.846 11.846-4.4-4.4a2.5 2.5 0 0 0 -3.535 3.535z"/><path d="m201.537 164.928c2.218-9.563 5.5-10.648 10.048-12.15a2.5 2.5 0 0 0 0-4.748c-4.214-1.382-7.785-2.4-10.048-12.15a2.5 2.5 0 0 0 -4.871 0c-2.22 9.563-5.5 10.648-10.049 12.15a2.5 2.5 0 0 0 0 4.748c7.83 2.587 8.761 6.6 10.049 12.15a2.5 2.5 0 0 0 4.871 0zm-8.009-14.471a14.764 14.764 0 0 0 5.583-6.332 15.136 15.136 0 0 0 5.428 6.31 14.719 14.719 0 0 0 -5.355 6.061 15.019 15.019 0 0 0 -5.656-6.039z"/><path d="m225.163 189.576c-4.2-1.38-7.78-2.38-10.048-12.15a2.5 2.5 0 0 0 -4.871 0c-2.22 9.564-5.5 10.648-10.049 12.15a2.5 2.5 0 0 0 0 4.748c7.83 2.587 8.761 6.6 10.049 12.15a2.5 2.5 0 0 0 4.871 0c2.218-9.562 5.5-10.648 10.048-12.15a2.5 2.5 0 0 0 0-4.748zm-12.4 8.467a15.029 15.029 0 0 0 -5.657-6.043 14.76 14.76 0 0 0 5.583-6.333 15.136 15.136 0 0 0 5.428 6.31 14.72 14.72 0 0 0 -5.354 6.066z"/><path d="m58.327 164.636a2.5 2.5 0 0 0 0-4.748c-4.213-1.381-7.786-2.4-10.049-12.149a2.5 2.5 0 0 0 -4.871 0c-2.22 9.563-5.5 10.648-10.048 12.149a2.5 2.5 0 0 0 0 4.748c7.829 2.588 8.76 6.6 10.048 12.15a2.5 2.5 0 0 0 4.871 0c2.222-9.562 5.503-10.648 10.049-12.15zm-12.4 3.719a15.026 15.026 0 0 0 -5.656-6.039 14.762 14.762 0 0 0 5.582-6.332 15.145 15.145 0 0 0 5.428 6.309 14.707 14.707 0 0 0 -5.355 6.062z"/><path d="m138.867 77.793h-30.988a2.5 2.5 0 0 0 0 5h31.012a12.283 12.283 0 0 0 12.245-12.269v-16.079a12.283 12.283 0 0 0 -12.269-12.269h-3.986v-6.776a7.753 7.753 0 0 0 -7.355-7.8 7.581 7.581 0 0 0 -7.817 7.582 7.009 7.009 0 0 1 -7.047 6.988h-4.783a2.5 2.5 0 0 0 0 5h4.842a12 12 0 0 0 11.988-11.988 2.582 2.582 0 0 1 2.668-2.584 2.719 2.719 0 0 1 2.5 2.8v7.088a4.692 4.692 0 0 0 4.687 4.687h4.3a7.274 7.274 0 0 1 7.261 7.112h-10.613a2.5 2.5 0 0 0 0 5h10.624v6.4h-10.624a2.5 2.5 0 0 0 0 5h10.615a7.273 7.273 0 0 1 -7.26 7.108z"/></svg>